<?xml version="1.0" encoding="UTF-8" standalone="no"?>
<!DOCTYPE svg PUBLIC "-//W3C//DTD SVG 1.1//EN" "http://www.w3.org/Graphics/SVG/1.1/DTD/svg11.dtd">
<svg width="100%" height="100%" viewBox="0 0 56 20" version="1.1" xmlns="http://www.w3.org/2000/svg"
    xmlns:xlink="http://www.w3.org/1999/xlink" xml:space="preserve"
    xmlns:serif="http://www.serif.com/"
    style="fill-rule:evenodd;clip-rule:evenodd;stroke-linejoin:round;stroke-miterlimit:2;"
>

        <path id="c" d="M7.043,15.648C7.043,15.744 7.025,15.781 6.949,15.799C6.347,16.046 5.593,16.103 4.859,16.103C1.808,16.103 0,14.002 0,11.279C0,8.479 2.072,6.398 5.179,6.398C6.121,6.398 6.629,6.493 6.949,6.606C7.025,6.644 7.043,6.7 7.043,6.814L7.025,8.497C7.025,8.63 6.949,8.63 6.874,8.612C6.479,8.46 5.989,8.365 5.255,8.365C3.54,8.365 2.335,9.387 2.335,11.203C2.335,13.266 3.823,14.059 5.273,14.059C5.951,14.059 6.535,14.002 6.912,13.87C7.006,13.833 7.043,13.89 7.043,13.965L7.043,15.648Z" style="fill:#5c2483;fill-rule:nonzero;"/>
        <path id="y" d="M9.919,6.588C9.994,6.588 10.051,6.606 10.088,6.701C11.313,10.238 11.953,12.282 12.197,13.208C12.819,11.297 13.479,9.349 14.326,6.701C14.364,6.625 14.42,6.588 14.533,6.588L16.473,6.588C16.586,6.588 16.605,6.644 16.586,6.738C15.23,10.919 13.071,16.185 11.546,19.684C11.508,19.76 11.452,19.817 11.301,19.817L9.238,20C9.125,20 9.099,19.938 9.144,19.849C9.71,18.713 10.427,17.181 11.03,15.744C11.068,15.63 11.086,15.573 11.048,15.44C10.54,14.192 8.732,9.69 7.602,6.72C7.564,6.644 7.62,6.588 7.715,6.588L9.919,6.588Z" style="fill:#5c2483;fill-rule:nonzero;"/>
        <path id="t" d="M22.706,15.61C22.706,15.725 22.688,15.8 22.593,15.838C22.085,16.027 21.614,16.102 20.992,16.102C19.448,16.102 18.525,15.346 18.525,13.473L18.525,8.498L17.338,8.498C17.244,8.48 17.206,8.441 17.206,8.328L17.206,6.738C17.206,6.625 17.244,6.587 17.357,6.587L18.525,6.583C18.543,5.921 18.525,4.912 18.525,4.26C18.543,4.166 18.581,4.109 18.675,4.09L20.674,3.912C20.764,3.904 20.806,3.912 20.806,4.007L20.806,6.583L22.65,6.587C22.744,6.587 22.781,6.625 22.781,6.72L22.781,8.365C22.781,8.46 22.744,8.498 22.65,8.498L20.804,8.498L20.804,12.981C20.804,13.813 21.067,14.211 21.878,14.211C22.122,14.211 22.33,14.193 22.593,14.135C22.65,14.116 22.706,14.135 22.706,14.248L22.706,15.61Z" style="fill:#5c2483;fill-rule:nonzero;"/>
        <path id="a" d="M28.959,11.752C28.676,11.714 28.356,11.695 27.923,11.695C26.435,11.695 25.776,12.186 25.776,13C25.776,13.7 26.265,14.305 27.621,14.305C28.111,14.305 28.544,14.248 28.959,14.079L28.959,11.752ZM31.162,13.984C31.162,14.4 31.162,14.778 31.2,15.176C31.2,15.213 31.2,15.232 31.162,15.252C29.618,15.913 28.526,16.102 27.244,16.102C25.192,16.102 23.553,15.138 23.553,13C23.553,10.995 25.342,9.992 27.791,9.992C28.356,9.992 28.789,10.011 28.959,10.03L28.959,9.803C28.959,9.368 28.714,8.384 27.056,8.384C26.115,8.384 25.286,8.574 24.588,8.914C24.532,8.933 24.438,8.914 24.438,8.801L24.438,7.155C24.438,7.06 24.457,7.022 24.551,6.966C25.361,6.587 26.397,6.397 27.415,6.397C30.032,6.397 31.162,8.044 31.162,10.144L31.162,13.984Z" style="fill:#5c2483;fill-rule:nonzero;"/>
        <path id="r" d="M34.267,6.588C34.381,6.588 34.438,6.625 34.475,6.738C34.569,6.984 34.644,7.458 34.663,7.874C35.304,7.079 36.327,6.398 37.627,6.398C37.739,6.398 37.827,6.453 37.827,6.594L37.827,8.535C37.827,8.63 37.789,8.668 37.658,8.668C36.321,8.63 35.21,9.103 34.776,9.671L34.776,15.762C34.776,15.876 34.72,15.913 34.606,15.913L32.648,15.913C32.516,15.913 32.478,15.856 32.478,15.762C32.478,15.762 32.485,7.369 32.485,6.701C32.485,6.606 32.504,6.588 32.598,6.588L34.267,6.588Z" style="fill:#5c2483;fill-rule:nonzero;"/>
        <path id="i" d="M38.777,6.55C38.777,6.466 38.845,6.398 38.929,6.398C40.114,6.398 41.075,7.362 41.075,8.553L41.075,15.764C41.075,15.877 41.036,15.915 40.905,15.915L38.966,15.915C38.834,15.915 38.777,15.858 38.777,15.745L38.777,6.55Z" style="fill:#5c2483;fill-rule:nonzero;"/>
        <path id="o" d="M47.169,14.138C45.576,14.123 44.297,12.814 44.311,11.214C44.326,9.615 45.629,8.329 47.222,8.344C48.815,8.359 50.094,9.668 50.079,11.268C50.065,12.868 48.761,14.153 47.169,14.138M47.876,6.482C47.119,6.369 46.014,6.446 45.46,6.41C43.518,6.279 42.185,4.377 42.182,2.485C42.181,1.047 41.374,0.235 40.308,0.039C39.63,-0.088 38.97,0.105 38.471,0.501C37.984,0.908 37.658,1.518 37.642,2.21C37.612,3.297 38.236,4.259 39.637,4.556C41.479,4.951 43.056,6.656 42.782,8.591C42.702,9.142 42.392,10.273 42.346,11.04C42.18,13.708 44.321,16.035 47.032,16.093C48.225,16.119 49.332,15.719 50.191,15.02C51.049,14.322 51.682,13.32 51.889,12.138C52.369,9.509 50.569,6.882 47.876,6.482" style="fill:#35b7b8;fill-rule:nonzero;"/>
        <path id="®" d="M54.243,7.684C54.243,7.493 54.104,7.355 53.837,7.355L53.499,7.355L53.499,8.006L53.837,8.006C54.104,8.006 54.243,7.884 54.243,7.684M53.499,8.224L53.499,8.893L53.257,8.893L53.257,7.137L53.837,7.137C54.235,7.137 54.494,7.346 54.494,7.676C54.494,7.937 54.33,8.11 54.088,8.18L54.581,8.893L54.295,8.893L53.845,8.224L53.499,8.224ZM55.212,8.015C55.212,7.207 54.65,6.633 53.837,6.633C53.023,6.633 52.452,7.207 52.452,8.015C52.452,8.832 53.023,9.405 53.837,9.405C54.65,9.405 55.212,8.832 55.212,8.015M52.21,8.015C52.21,7.085 52.894,6.398 53.837,6.398C54.78,6.398 55.463,7.085 55.463,8.015C55.463,8.954 54.78,9.64 53.837,9.64C52.894,9.64 52.21,8.954 52.21,8.015" style="fill:#5c2483;fill-rule:nonzero;"/>


</svg>