<?xml version="1.0" encoding="UTF-8" standalone="no"?>
<!DOCTYPE svg PUBLIC "-//W3C//DTD SVG 1.1//EN" "http://www.w3.org/Graphics/SVG/1.1/DTD/svg11.dtd">
<svg width="100%" height="100%" viewBox="0 0 2048 2048" version="1.1"
    xmlns="http://www.w3.org/2000/svg" xmlns:xlink="http://www.w3.org/1999/xlink"
    xml:space="preserve" xmlns:serif="http://www.serif.com/"
    style="fill-rule:evenodd;clip-rule:evenodd;stroke-linejoin:round;stroke-miterlimit:2;">
    <path id="o" d="M1324.96,1799.05C1122.29,1797.15 959.474,1630.6 961.358,1427.05C963.177,1223.5 1129.08,1059.88 1331.75,1061.77C1534.42,1063.69 1697.23,1230.22 1695.34,1433.87C1693.53,1637.45 1527.63,1800.94 1324.96,1799.05M1414.94,824.809C1318.59,810.486 1177.96,820.306 1107.57,815.739C860.462,799.002 690.763,556.919 690.34,316.239C690.243,133.208 587.527,29.883 451.905,4.924C365.691,-11.226 281.621,13.374 218.179,63.716C156.134,115.525 114.684,193.142 112.637,281.199C108.836,419.564 188.261,541.911 366.536,579.789C600.943,630.033 801.665,846.994 766.744,1093.22C756.609,1163.3 717.173,1307.21 711.325,1404.86C690.081,1744.4 962.56,2040.51 1307.51,2047.85C1459.38,2051.14 1600.26,2000.28 1709.54,1911.38C1818.69,1822.44 1899.31,1694.94 1925.63,1544.63C1986.73,1210.02 1757.65,875.737 1414.94,824.809" style="fill:rgb(53,183,184);fill-rule:nonzero;"/>
</svg>